<?xml version="1.0" standalone="no"?>
<!DOCTYPE svg PUBLIC "-//W3C//DTD SVG 20010904//EN"
 "http://www.w3.org/TR/2001/REC-SVG-20010904/DTD/svg10.dtd">
<svg version="1.0" xmlns="http://www.w3.org/2000/svg"
 width="520.000000pt" height="520.000000pt" viewBox="0 0 520.000000 520.000000"
 preserveAspectRatio="xMidYMid meet">
<metadata>
Created by potrace 1.14, written by Peter Selinger 2001-2017
</metadata>
<g transform="translate(0.000000,520.000000) scale(0.100000,-0.100000)"
fill="#000000" stroke="none">
<path d="M2290 5185 c-1029 -125 -1884 -845 -2184 -1838 -143 -472 -143 -1022
0 -1494 253 -840 907 -1494 1747 -1747 472 -143 1022 -143 1494 0 840 253
1494 907 1747 1747 143 472 143 1022 0 1494 -301 998 -1159 1717 -2194 1838
-151 18 -463 18 -610 0z m-204 -1612 c-3 -16 -60 -329 -126 -698 -81 -448
-131 -700 -151 -760 -93 -279 -310 -459 -610 -506 -92 -14 -283 -6 -364 15
-156 42 -270 131 -330 258 -41 86 -60 200 -50 298 11 111 -17 100 261 100
l244 0 0 -72 c0 -110 39 -161 131 -174 94 -13 192 44 231 135 13 31 268 1386
268 1426 0 3 113 5 251 5 l251 0 -6 -27z m929 0 c4 -16 76 -320 161 -677 85
-358 156 -652 158 -654 4 -3 51 74 531 885 l280 472 293 1 c160 0 292 -2 292
-4 0 -7 -349 -1928 -355 -1953 l-5 -23 -251 0 c-234 0 -250 1 -245 18 12 42
207 1124 203 1128 -2 3 -151 -253 -330 -568 l-325 -573 -204 -3 -203 -2 -119
585 c-66 321 -121 583 -123 581 -2 -2 -48 -252 -103 -557 -55 -305 -103 -566
-106 -581 l-6 -28 -250 0 -250 0 5 23 c3 12 83 445 177 962 94 517 173 952
176 968 l6 27 293 0 293 0 7 -27z"/>
</g>
</svg>
